<svg xmlns="http://www.w3.org/2000/svg" version="1.1" xmlns:xlink="http://www.w3.org/1999/xlink" xmlns:svgjs="http://svgjs.com/svgjs" width="37" height="36"><svg width="37" height="36" viewBox="0 0 37 36" fill="none" xmlns="http://www.w3.org/2000/svg">
<path fill-rule="evenodd" clip-rule="evenodd" d="M3.46811 3.56203C3.56291 2.99028 4.05243 2.57144 4.62586 2.57144H19.976C20.3213 2.57144 20.649 2.72511 20.8721 2.99156C21.0951 3.25801 21.1908 3.61022 21.1337 3.95448L16.64 31.055H16.8533L21.2658 21.0761C21.4548 20.6488 21.8745 20.3736 22.3375 20.3736H31.3806L33.939 4.94507H24.6991C24.0508 4.94507 23.5252 4.41371 23.5252 3.75825C23.5252 3.1028 24.0508 2.57144 24.6991 2.57144H35.3261C35.6713 2.57144 35.9991 2.72511 36.2222 2.99156C36.4452 3.25801 36.5409 3.61022 36.4838 3.95448L33.5319 21.7567C33.4371 22.3284 32.9476 22.7473 32.3741 22.7473H23.0986L18.6861 32.7261C18.4972 33.1535 18.0774 33.4286 17.6144 33.4286H15.2529C14.9076 33.4286 14.5798 33.2749 14.3568 33.0085C14.1338 32.742 14.038 32.3898 14.0951 32.0456L18.5889 4.94507H5.61936L3.06101 20.3736H12.3009C12.9492 20.3736 13.4748 20.905 13.4748 21.5605C13.4748 22.2159 12.9492 22.7473 12.3009 22.7473H1.67392C1.32865 22.7473 1.00089 22.5936 0.777843 22.3271C0.554795 22.0607 0.45908 21.7085 0.516165 21.3642L3.46811 3.56203Z" fill="#1E293B"></path>
</svg><style>@media (prefers-color-scheme: light) { :root { filter: none; } }
</style></svg>